<?xml version="1.0" encoding="iso-8859-1"?>
<!-- Generator: Adobe Illustrator 19.0.0, SVG Export Plug-In . SVG Version: 6.00 Build 0)  -->
<svg version="1.1" id="Capa_1" xmlns="http://www.w3.org/2000/svg" xmlns:xlink="http://www.w3.org/1999/xlink" x="0px" y="0px"
	 viewBox="0 0 491.102 491.102" style="enable-background:new 0 0 491.102 491.102;" xml:space="preserve">
<path style="fill:#4DCFE0;" d="M245.812,491.102c-103.445,0-214.727-21.943-214.727-70.531c0-52.767,124.343-66.351,162.482-68.963
	l2.09,31.347c-92.996,6.792-132.702,29.78-133.225,37.616c1.567,11.494,65.829,39.184,183.38,39.184
	c117.029,0,181.29-27.167,182.857-39.184c-1.045-8.359-40.751-30.824-131.657-37.616l2.09-31.347
	c37.616,3.135,160.914,16.718,160.914,68.963c0,6.269-1.567,15.673-11.494,25.6C421.878,473.339,341.943,491.102,245.812,491.102z"
	/>
<g>
	<path style="fill:#1185E0;" d="M274.547,117.029h-57.469c-45.976,0-83.592,37.616-83.592,83.592v84.114
		c0,8.882,6.792,15.673,15.673,15.673h32.392V437.29c0,8.882,6.792,15.673,15.673,15.673h48.588H294.4
		c8.882,0,15.673-6.792,15.673-15.673V300.408h32.392c8.882,0,15.673-6.792,15.673-15.673V200.62
		C358.139,154.645,320.522,117.029,274.547,117.029z M326.792,269.061h-16.718v-83.592h-31.347v236.147h-17.241V316.604h-31.347
		v105.012h-17.241V185.469h-31.347v83.592h-16.718V200.62c0-28.735,23.51-52.245,52.245-52.245h57.469
		c28.735,0,52.245,23.51,52.245,52.245V269.061z"/>
	<path style="fill:#1185E0;" d="M245.812,110.759c30.302,0,55.38-25.078,55.38-55.38S276.114,0,245.812,0s-55.38,25.078-55.38,55.38
		S215.51,110.759,245.812,110.759z M245.812,31.347c13.061,0,24.033,10.971,24.033,24.033s-10.971,24.033-24.033,24.033
		c-13.061,0-24.033-10.971-24.033-24.033S232.751,31.347,245.812,31.347z"/>
</g>
<g>
</g>
<g>
</g>
<g>
</g>
<g>
</g>
<g>
</g>
<g>
</g>
<g>
</g>
<g>
</g>
<g>
</g>
<g>
</g>
<g>
</g>
<g>
</g>
<g>
</g>
<g>
</g>
<g>
</g>
</svg>
