<?xml version="1.0"?>
<svg version="1.1" id="圖層_1" xmlns="http://www.w3.org/2000/svg" x="0" y="0" viewBox="0 0 100 100" xml:space="preserve"><g><circle transform="rotate(-46.678 35.063 65.795)" cx="35.063" cy="65.794" fill="#fff" r="3.362"/><path transform="rotate(-46.678 51.808 48.04)" fill="#fff" stroke="#fff" stroke-miterlimit="10" d="M32.784 34.719h38.047v26.639H32.784z"/><path d="M77.772 38.846L59.464 21.58a3.171 3.171 0 0 0-4.483.131L31.053 47.084l-1.671 1.771-7.221 7.657a3.171 3.171 0 0 0 .131 4.483L40.6 78.262a3.171 3.171 0 0 0 4.483-.131l7.221-7.657 1.671-1.771 23.928-25.372a3.173 3.173 0 0 0-.131-4.485zM32.756 68.239a3.361 3.361 0 1 1 4.612-4.891 3.361 3.361 0 0 1-4.612 4.891zm15.689 2.778L29.065 52.74l26.104-27.68 19.38 18.277-26.104 27.68z" fill="#333"/><path fill="none" stroke-width="2" stroke-linecap="round" stroke="#fff" stroke-miterlimit="10" d="M62.155 28.378l8.673 8.179"/></g><g><path d="M82.797 48.801c3.957-4.196 3.764-10.806-.433-14.763" stroke="#77a4bd" stroke-width="3" stroke-linejoin="round" fill="none" stroke-linecap="round" stroke-miterlimit="10"/><path d="M87.141 28.973c6.994 6.595 7.316 17.611.721 24.605" stroke="#77a4bd" stroke-width="3" stroke-linejoin="round" fill="none" stroke-linecap="round" stroke-miterlimit="10"/></g><g><path d="M17.413 51.123c-3.957 4.196-3.764 10.806.433 14.763" stroke="#77a4bd" stroke-width="3" stroke-linejoin="round" fill="none" stroke-linecap="round" stroke-miterlimit="10"/><path d="M13.069 70.951c-6.994-6.595-7.316-17.611-.721-24.605" stroke="#77a4bd" stroke-width="3" stroke-linejoin="round" fill="none" stroke-linecap="round" stroke-miterlimit="10"/></g><metadata xmlns:d="https://loading.io/stock/"><d:name>vibrate</d:name><d:tags>vibrate,calling,incoming message,signal,wifi,nfc,sound,noise</d:tags><d:license>by</d:license><d:slug>nlspg5</d:slug></metadata></svg>